<svg id="logoHeader" xmlns="http://www.w3.org/2000/svg" width="59" height="48.34" viewBox="0 0 59 48.34">
  <path id="Path_479" data-name="Path 479" d="M39.34,52.67H30.07l-1.12-1.12-.79-.79-1.92-1.92L6.56,29.17v23.5L2.25,48.36,1.2,47.31l-.07-.07h0l-.07-.07L0,46.12V13.34l1.12,1.12-.07.07.07-.07,4.63,4.63.79.79,6.55,6.55,1.92,1.92,4.63,4.63,4.63,4.63h0l1.92,1.92,2.71,2.71h0l3.84,3.84.79.79h0l4.63,4.64,1.12,1.12Z" transform="translate(0 -4.33)"/>
  <path id="Path_480" data-name="Path 480" d="M0,4.33H9.27l1.12,1.12.79.79L13.1,8.16,32.76,27.82V4.33l4.31,4.31,1.05,1.05.07.07h0l.07.07,1.05,1.05V43.65l-1.12-1.12.07-.07-.07.07L33.56,37.9l-.79-.79-6.55-6.55L24.3,28.64l-4.63-4.63-4.63-4.63h0l-1.92-1.92-2.71-2.71h0L6.57,10.91l-.79-.79h0L1.13,5.45Z" transform="translate(0 -4.33)"/>
  <path id="Path_481" data-name="Path 481" d="M59,4.33V13.6l-1.12,1.12-1.13,1.13-1.58,1.58-2.72,2.72-.33.33-.8.8-1.13,1.13-2.71,2.71-1.59,1.59V17.44l1.59-1.59,1.13-1.13,3.12-3.12.39-.39.33-.33,2.71-2.71,1.26-1.26Z" transform="translate(0 -4.33)"/>
  <path id="Path_482" data-name="Path 482" d="M59,52.67V43.4l-1.12-1.12-1.13-1.13-1.58-1.58-2.72-2.72-.33-.33-.8-.8-1.13-1.13-2.71-2.71-1.59-1.59v9.27l1.59,1.59,1.13,1.13,3.12,3.12.39.39.33.33,2.71,2.71,1.26,1.26Z" transform="translate(0 -4.33)"/>
</svg>
