<?xml version="1.0" encoding="UTF-8"?>
<svg id="Layer_1" data-name="Layer 1" xmlns="http://www.w3.org/2000/svg" viewBox="0 0 1540.41 134.07">
  <g>
    <polygon points="806.08 11.5 806.08 104.92 827.24 93.05 827.24 0 806.08 11.5"/>
    <g>
      <g>
        <polygon points="876.25 104.72 873.83 112.32 878.8 112.32 876.35 104.72 876.25 104.72"/>
        <path d="m922.21,20.27v72.77h-94.97l-10.58,5.94v25.41c0,4.42,3.58,8,8,8h106.84V20.27h-9.29Zm-57.88,100.16h-3.91v-15.41h-.11l-4.64,15.41h-3.77l-4.48-15.44h-.11v15.44h-3.83v-19.64h6.24l4.15,14.35h.11l4.12-14.35h6.21v19.64Zm16.96,0l-1.63-4.77h-6.54l-1.52,4.77h-4.31l6.43-19.64h5.21l6.94,19.64h-4.58Zm18.32,0l-4.29-6.54-4.1,6.54h-4.5l6.35-9.9-6.05-9.74h4.67l4.02,6.65,4.07-6.65h4.34l-6.13,9.71,6.46,9.93h-4.83Z"/>
      </g>
      <path d="m914.21,0h-86.97v93.05h94.97V8C922.21,3.58,918.63,0,914.21,0Zm-43.92,74.54c-8.53,0-16.99-3.19-17.73-15.77l10.1-.09c.6,4.56,2.54,7.11,7.63,7.11,4.26,0,7.63-2.47,7.63-8.08s-3.07-7.78-8.75-7.78h-5.31v-8.53h3.52c6.36,0,9.8-3.22,9.8-8.23,0-3.59-1.5-5.98-6.14-5.98s-6.51,2.39-7.48,6.73l-9.73-.22c.76-11.52,9.8-15.2,18.25-15.2,10.4,0,16.23,4.86,16.23,13.17,0,7.11-5.24,11.15-10.17,12.79v.3c7.18,1.65,11.3,5.69,11.3,13.54,0,10.03-7.48,16.23-19.15,16.23Z"/>
    </g>
  </g>
  <path d="m671.37,69.95v8.36c0,11.22,0,22.43,0,33.65,0,5.31-1.66,10.04-5.04,14.12-3.47,4.19-7.9,6.84-13.27,7.68-7.85,1.23-14.56-1.1-19.99-6.9-3.06-3.27-4.92-7.19-5.49-11.65-.99-7.65,1.34-14.17,6.97-19.43,3.43-3.21,7.54-5.04,12.21-5.6.27-.03.53-.06.8-.11-5.97-.61-10.99-3.1-14.9-7.66-3.92-4.56-5.66-9.9-5.27-15.89.7-10.77,9.3-19.51,20.16-20.45-.46-.06-.91-.11-1.37-.18-5.34-.81-9.81-3.24-13.39-7.29-2.59-2.93-4.31-6.32-5.02-10.16-1.31-7.02.3-13.32,4.94-18.76,3.25-3.81,7.39-6.18,12.29-7.19,1.27-.26,2.55-.41,3.85-.41,14.99,0,29.97-.03,44.96.02,5.23.02,9.84,1.87,13.81,5.26,3.65,3.12,6.1,7.02,7.13,11.72,1.59,7.26,0,13.8-4.83,19.47-3.46,4.05-7.91,6.45-13.17,7.33-.54.09-1.09.14-1.64.22,6.5.68,11.83,3.52,15.77,8.75,3.95,5.24,5.27,11.17,4.01,17.59-2.07,10.57-11.68,18.37-23,17.65-11.32-.73-19.69-9.71-20.55-20.11Zm0-3.75c.88-10.55,9.33-19.18,20.1-20.08-.02,0-.04-.01-.06-.01-6.56,0-13.11,0-19.67,0-.29,0-.37.1-.37.38,0,6.57,0,13.14,0,19.71Z"/>
  <g>
    <path d="m428.79,50.11c.57-.4.78-.92,1.07-1.36,1.49-2.25,3.21-4.29,5.36-5.93,3.27-2.48,6.94-3.83,11.07-4.07,5.45-.31,10.16,1.33,14.21,4.93,2.67,2.38,4.7,5.26,6.31,8.43,2.4,4.75,3.9,9.79,4.81,15.02.66,3.79,1.02,7.6,1.24,11.44.15,2.64.22,5.28.15,7.91-.25,8.45-1.25,16.78-4.14,24.79-1.72,4.75-4.03,9.16-7.42,12.95-4.01,4.47-8.86,7.37-14.96,7.88-5.7.48-10.65-1.1-14.63-5.35-1.42-1.51-2.59-3.19-3.62-4.97-.37-.64-.71-1.29-1.07-1.93-.11-.19-.22-.45-.51-.36-.22.07-.2.31-.21.5-.15,1.66-.3,3.32-.44,4.98-.13,1.51-.22,3.02-.37,4.52-.12,1.2-.26,1.34-1.43,1.34-4.19.01-8.38.01-12.57,0-1.21,0-1.34-.15-1.33-1.35.02-3.41.3-6.82.4-10.23.09-3.14.12-6.28.12-9.43.01-23.71,0-47.42.01-71.13,0-11.52,0-23.05,0-34.57q0-2.13,2.1-2.13c4.58,0,9.16,0,13.74,0,.27,0,.54,0,.81,0,1.11.04,1.18.12,1.15,1.22-.01.39-.03.78-.03,1.16,0,14.78,0,29.57,0,44.35,0,.41-.07.85.19,1.38Zm-.2,35.95c0,3.65.03,7.3,0,10.94-.04,3.61.57,7.1,1.84,10.48.97,2.56,2.16,4.97,4.12,6.95,4.24,4.28,10.59,3.3,14.04-.68,2.11-2.44,3.27-5.34,4.19-8.37,1.46-4.83,2.01-9.81,2.17-14.81.14-4.26.23-8.53-.14-12.79-.33-3.84-.84-7.63-1.92-11.34-.78-2.69-1.83-5.29-3.43-7.61-1.83-2.65-4.31-4.31-7.56-4.71-2.75-.33-5.04.67-7,2.5-3.05,2.86-4.72,6.48-5.63,10.51-.56,2.48-.61,5.01-.66,7.52-.09,3.8-.02,7.61-.02,11.41Z"/>
    <path d="m309.78,48.61c.2-.49.12-.91.12-1.32,0-14.4,0-28.79,0-43.19,0-2.24-.14-2.11,2.06-2.12,4.46,0,8.93,0,13.39,0,.43,0,.85,0,1.28.02.87.05,1.01.18,1.04,1.04.03.7,0,1.4,0,2.1,0,33.8,0,67.6,0,101.4,0,3.41-.04,6.83.12,10.24.18,3.83.09,7.68.53,11.5.05.46.05.93.03,1.4-.03.9-.19,1.05-1.11,1.13-.35.03-.7.02-1.05.02-3.69,0-7.37,0-11.06,0-.31,0-.62,0-.93-.02-1.01-.07-1.16-.22-1.26-1.27-.3-2.89-.6-5.79-.9-8.68-.03-.3-.01-.62-.28-.91-.48.14-.56.6-.76.94-2.14,3.71-5.02,6.68-8.78,8.77-7.26,4.04-16.03,3.16-22.52-1.94-3.14-2.46-5.49-5.56-7.39-9.04-2.85-5.2-4.45-10.81-5.46-16.62-.65-3.71-.94-7.46-1.2-11.21-.41-5.83,0-11.62.68-17.41.43-3.63,1.1-7.22,2.16-10.71,1.72-5.73,4.16-11.13,8.14-15.69,3.7-4.25,8.21-7.24,13.88-8.09,5.11-.77,9.89.14,14.09,3.35,1.81,1.39,3.2,3.15,4.35,5.11.23.39.41.82.84,1.19Zm.12,36.73c-.08-4.19.08-9.23-.13-14.27-.11-2.67-.57-5.24-1.49-7.73-.94-2.54-2.16-4.9-4.23-6.73-2.31-2.05-4.93-2.95-8.05-2.35-3.3.64-5.55,2.62-7.3,5.32-1.84,2.84-2.84,6.02-3.59,9.28-1.13,4.86-1.48,9.81-1.6,14.77-.11,4.66.08,9.31.7,13.93.51,3.74,1.31,7.41,2.78,10.91.99,2.35,2.28,4.47,4.15,6.26,3.29,3.16,8.62,3.29,12.06.55,1.22-.97,2.28-2.11,3.09-3.45,1.38-2.27,2.33-4.72,2.98-7.3.52-2.09.58-4.23.62-6.35.07-3.99.02-7.99.02-12.84Z"/>
    <path d="m225.67,5.31c2.91,0,5.82,0,8.73,0,1.44,0,1.52.09,1.83,1.52,2.29,10.77,4.59,21.55,6.87,32.32,2.14,10.09,4.26,20.19,6.4,30.28,2.82,13.28,5.65,26.56,8.47,39.83,1.43,6.71,2.86,13.43,4.28,20.14.05.23.09.46.12.69.05.37-.14.6-.5.66-.3.05-.62.07-.93.07-4.81,0-9.62,0-14.43,0-.12,0-.23,0-.35,0-1.07-.06-1.24-.2-1.47-1.26-.53-2.46-1.06-4.93-1.58-7.4-1.72-8.24-3.44-16.48-5.17-24.72-.25-1.2-.3-1.25-1.53-1.25-7.72,0-15.44,0-23.17,0-1.3,0-1.3.02-1.58,1.32-2.3,10.69-4.6,21.39-6.9,32.08-.21.98-.38,1.15-1.39,1.21-.81.04-1.63.03-2.44.03-3.76,0-7.53,0-11.29,0-.23,0-.47,0-.7,0-1.72-.03-1.79-.12-1.41-1.81,2.37-10.56,4.72-21.12,7.1-31.68,1.97-8.74,3.97-17.47,5.94-26.21,1.77-7.87,3.51-15.75,5.29-23.62,1.81-8.02,3.66-16.03,5.47-24.05,1.27-5.6,2.52-11.2,3.77-16.8.29-1.3.32-1.34,1.7-1.35,2.95,0,5.9,0,8.85,0h0Zm-.75,18.65c-.41.74-.42,1.57-.53,2.34-1.37,9.48-2.98,18.92-4.88,28.3-1.75,8.62-3.44,17.26-5.14,25.9-.27,1.38-.26,1.38,1.09,1.38,6.28,0,12.57,0,18.85,0,.19,0,.39,0,.58,0,.47.01.61-.24.54-.67-.04-.23-.06-.46-.11-.69-1.42-7.39-2.83-14.77-4.27-22.15-1.31-6.74-2.57-13.48-3.61-20.26-.68-4.41-1.35-8.81-2.03-13.22-.05-.33,0-.71-.48-.93Z"/>
    <path d="m369.64,132.23c-10.1-.15-17.66-4.13-23.13-11.99-3.88-5.58-6.04-11.85-7.25-18.49-1.22-6.67-1.61-13.41-1.32-20.16.36-8.47,1.71-16.76,5.35-24.51,2.63-5.61,6.32-10.41,11.57-13.85,4-2.62,8.37-4.16,13.19-4.46,6.8-.41,12.9,1.38,18.24,5.61,3.08,2.44,5.48,5.47,7.43,8.87,3.19,5.61,4.97,11.68,5.97,18.02.65,4.11.92,8.24.99,12.4.13,7.44-.45,14.8-2.37,22.02-1.47,5.53-3.7,10.71-7.21,15.27-4.33,5.63-9.91,9.31-16.91,10.73-1.68.34-3.38.46-4.55.54Zm-13.99-47.02c.02,2.06.09,4.11.17,6.16.16,3.77.54,7.5,1.27,11.2.61,3.09,1.44,6.12,2.89,8.94,1,1.95,2.3,3.67,4.1,4.99,2.74,2.02,7.47,2.32,10.47-.02,1.09-.85,1.94-1.89,2.68-3.03,1.79-2.78,2.71-5.9,3.49-9.08,1.35-5.5,1.68-11.11,1.85-16.73.12-4.03-.09-8.06-.44-12.08-.36-4.19-1.08-8.31-2.39-12.31-.84-2.55-1.89-5.01-3.62-7.11-2.77-3.36-6.91-4.09-10.51-2.61-2.17.89-3.66,2.58-4.86,4.53-1.99,3.22-2.94,6.82-3.67,10.49-1.09,5.5-1.35,11.07-1.42,16.66Z"/>
    <path d="m.24,130.17c-.36-.43-.21-.96-.21-1.43-.01-7.06-.01-14.12-.01-21.19,0-33.33,0-66.66,0-99.99q0-1.98,2.01-1.99c16.06,0,32.13,0,48.19,0,.39,0,.78,0,1.16.03.97.09,1.09.27.74,1.16-.32.79-.67,1.57-1,2.36-3.92,9.38-7.84,18.76-11.76,28.13-6.53,15.6-13.06,31.2-19.59,46.81-4.97,11.88-9.92,23.77-14.88,35.66-1.34,3.22-2.67,6.45-4.02,9.67-.12.3-.15.7-.63.79Z"/>
    <path d="m141.24,130.25c-.57-.24-.63-.66-.78-1-2.05-4.9-4.09-9.81-6.13-14.71-3.84-9.2-7.69-18.39-11.53-27.59-4.42-10.6-8.83-21.2-13.26-31.79-4.2-10.06-8.41-20.11-12.62-30.17-2.41-5.76-4.82-11.52-7.23-17.28-.16-.39-.34-.79-.47-1.19-.22-.65-.1-.82.6-.91.35-.04.7-.03,1.05-.03,15.95,0,31.89,0,47.84,0,.58,0,1.16.04,1.74.12.79.11.85.2.84.96,0,.62-.04,1.24-.04,1.86,0,39.96,0,79.93,0,119.89,0,.57,0,1.15,0,1.84Z"/>
    <path d="m529.1,89.38c-3.18,0-6.37.1-9.54-.02-6.28-.24-12.57-.1-18.85-.18-.27,0-.54-.01-.81,0-.88.04-1.05.17-1.04,1.02.02,5.55.73,10.99,2.87,16.16,1.45,3.52,3.62,6.5,6.87,8.59,2.26,1.46,4.75,2.28,7.41,2.57,6.22.67,12.21-.31,18-2.64.95-.38,1.12-.31,1.34.72.76,3.57,1.5,7.14,2.23,10.71.19.93.15,1-.75,1.42-3,1.42-6.18,2.3-9.43,2.89-4.36.8-8.77,1.14-13.2.95-7.66-.31-14.53-2.68-20.26-7.93-2.39-2.19-4.33-4.76-5.96-7.56-2.88-4.93-4.51-10.28-5.45-15.87-.54-3.21-.82-6.45-1-9.71-.47-8.24.31-16.36,2.43-24.32,1.61-6.05,4.17-11.7,8.13-16.61,4.69-5.81,10.61-9.68,18.11-10.62,9.74-1.21,17.69,2.04,23.48,10.13,3.46,4.83,5.28,10.33,6.45,16.08,1.21,5.92,1.47,11.92,1.33,17.95-.04,1.59-.14,3.18-.23,4.76-.08,1.37-.21,1.5-1.61,1.5-3.49,0-6.98,0-10.48,0h0Zm-17.54-13.02h0c1.24,0,2.48,0,3.72,0,2.64,0,5.28,0,7.91,0,1.11,0,1.22-.13,1.26-1.18.12-3.82-.21-7.6-1.24-11.29-.83-2.97-1.97-5.78-3.91-8.25-3.32-4.22-9.57-4.32-13.07-.81-1.64,1.65-2.88,3.54-3.82,5.65-1.37,3.07-2.23,6.29-2.78,9.59-.29,1.76-.58,3.52-.57,5.31,0,.94,0,.95.97.98.19,0,.39,0,.58,0h10.94Z"/>
    <path d="m92.93,130.82c-2.84-.04-6.21.06-9.59-.1-.91-.04-1.41-.33-1.74-1.18-2.83-7.22-5.7-14.44-8.54-21.65-1.05-2.67-.77-2.18-3.23-2.19-6.71-.02-13.43,0-20.14,0-1.9,0-1.95-.06-1.22-1.78,3.36-7.93,6.73-15.86,10.09-23.79,3-7.07,5.99-14.15,8.98-21.22.83-1.96,1.66-3.93,2.51-5.89.16-.37.21-.96.72-.94.42.02.46.58.6.92,2.86,6.79,5.7,13.6,8.56,20.39,4.81,11.41,9.63,22.81,14.44,34.21,3.06,7.26,6.12,14.52,9.17,21.78.08.18.15.36.22.54.18.49,0,.74-.52.78-.74.05-1.47.13-2.21.14-2.52.02-5.05,0-8.1,0Z"/>
    <path d="m539.8,46.84c-2.3.02-4.17-1.87-4.18-4.23,0-2.15,1.96-4.16,4.18-4.17,1.84,0,4.07,1.54,4.1,4.22.03,2.26-1.85,4.16-4.11,4.19Zm.08-1.02c1.7,0,2.91-1.29,2.9-3.1,0-1.83-1.27-3.15-3.01-3.15-1.73,0-2.96,1.33-2.95,3.19.01,1.86,1.22,3.07,3.07,3.06Z"/>
    <path d="m147.82,14.01c-2.25-.07-4.02-2.08-3.92-4.46.09-2.12,2.15-4.04,4.25-3.96,2.17.09,4.06,2.13,4.01,4.33-.05,2.27-2.04,4.15-4.33,4.09Zm3.12-4.03c.14-2.12-1.41-3.27-2.84-3.26-1.79,0-3.05,1.22-3.1,3.08-.05,1.75,1.29,3.18,2.99,3.2,1.78.02,2.93-1.15,2.94-3.01Z"/>
    <path d="m538.15,41.14c.01-.56.34-.84.87-.9.51-.06,1.01-.05,1.49.14.88.34,1.22.97.84,1.84-.23.52-.21.95-.02,1.44.1.25.15.52.19.79.04.28.03.57-.31.65-.31.07-.52-.14-.64-.39-.13-.28-.2-.58-.3-.88-.1-.29-.28-.47-.6-.45-.34.02-.44.26-.47.56-.02.23-.02.47-.06.69-.04.24-.17.44-.45.44-.27,0-.44-.21-.47-.44-.06-.65-.07-2.98-.06-3.48Zm1.61.11c-.34,0-.53.13-.55.46-.02.37.15.58.53.57.3,0,.53-.14.55-.46.03-.38-.22-.53-.54-.57Z"/>
    <path d="m146.33,8.31c.01-.27.08-.54.33-.71.46-.34,2.01-.23,2.57.19.52.39.66.9.3,1.76-.25.59.04,1.05.13,1.57.07.39.38.92-.19,1.1-.52.17-.7-.34-.84-.75-.04-.11-.06-.23-.1-.34-.11-.31-.26-.6-.63-.57-.43.04-.38.42-.42.72-.05.42-.02.98-.61.94-.55-.04-.53-.6-.56-1.01l.02-2.9Zm1.63.13c-.3.02-.45.21-.43.53.01.27.15.44.43.45.31,0,.54-.14.55-.46.01-.33-.21-.48-.54-.51Z"/>
  </g>
  <g>
    <g>
      <path d="m1074.2,80.36c-4.19,3.42-8.21,6.7-12.22,9.98-5.99,4.89-11.97,9.79-17.96,14.68-2.81,2.29-5.95,3.79-9.66,3.78-6.68-.02-10.79-5.72-8.74-12.05.98-3.02,2.84-5.38,5.33-7.29,16.35-12.53,32.7-25.06,49.05-37.6,2.5-1.92,5-3.84,7.55-5.8-.61-.53-1.21-.33-1.74-.32-9.09.05-18.17.13-27.26.17-1.92,0-3.84-.09-5.69-.73-4.76-1.66-6.35-6.37-3.49-10.52,2.24-3.25,5.5-4.79,9.35-5.19.82-.09,1.66-.06,2.49-.06,19.73-.01,39.47-.02,59.2-.04.61,0,1.22,0,1.83,0,.09-.68-.39-.81-.68-1.05-6.08-4.94-12.16-9.88-18.26-14.8-4.57-3.69-4.19-8.48,1.06-11.15,4.19-2.13,8.34-1.85,12.15,1.06,10.64,8.13,21.29,16.24,31.88,24.44,7.02,5.43,14.36,10.46,20.96,16.4,9.12,8.21,14.87,18.4,16.09,30.69,1.94,19.56-6.07,34.68-21.72,45.98-8.92,6.43-19.04,9.78-30.06,10.37-18.17.97-33.88-4.56-46.54-17.79-7.43-7.76-11.91-17.02-12.94-27.81-.08-.86.09-1.75.12-2.63.03-.81.21-1.63-.12-2.71Zm54.37,26.52c9.54-.1,17.12-2.58,23.78-7.83,13.58-10.71,15.04-30.37,3-42.74-7.62-7.82-17.05-11.11-27.93-10.44-9.75.61-17.91,4.47-24.38,11.82-8.37,9.51-9.35,23.94-2.2,34.35,6.93,10.08,16.87,14.46,27.72,14.83Z"/>
      <path d="m1433.2,72.53c0,9.12,0,18.24,0,27.36,0,2.27-.05,2.32-2.38,2.32-3.17,0-6.33,0-9.5,0-2.12,0-2.12-.02-2.25-2.3-.02-.34.17-.82-.27-.95-.21-.06-.57.18-.8.36-5.02,3.98-10.9,4.61-16.97,4.17-6.19-.44-11.75-2.57-16.2-7.05-10.28-10.36-8.46-31.57,8.71-37.51,6.3-2.18,12.69-2.41,19.1-.33,1.95.63,3.69,1.65,5.27,2.94.26.22.53.62.92.43.39-.19.23-.65.24-.99.01-4.2.06-8.4-.02-12.59-.03-1.44.41-2.16,1.86-2.49,3.49-.8,6.94-1.76,10.41-2.63,1.79-.45,1.87-.39,1.87,1.44,0,9.28,0,18.55,0,27.83Zm-26.77-4.21c-6.64-.01-10.9,2.92-12.31,8.73-1.65,6.78,1.19,13.95,8.85,15.39,4.29.8,8.47.49,11.94-2.4,4.31-3.58,4.82-8.41,3.58-13.47-1.3-5.31-5.77-8.23-12.07-8.24Z"/>
      <path d="m1194.7,72.37c0-9.07,0-18.14,0-27.2,0-2.3.01-2.34,2.17-1.81,3.48.86,6.93,1.8,10.41,2.63,1.21.29,1.55.94,1.54,2.1-.04,4.25-.02,8.5,0,12.75,0,.39-.2.93.25,1.13.43.19.74-.28,1.04-.53,4.19-3.39,9.14-4.26,14.32-4.22,3.65.03,7.23.61,10.65,1.97,11.33,4.49,16.98,16.54,13.17,28.36-3.01,9.34-9.82,14.21-19.25,15.67-4.97.77-9.94.64-14.7-1.32-1.55-.64-2.98-1.46-4.3-2.49-.28-.21-.54-.59-.93-.46-.44.15-.26.62-.28.96-.14,2.3-.13,2.3-2.4,2.31-3.17,0-6.33,0-9.5,0-2.12,0-2.21-.1-2.21-2.18,0-9.22,0-18.45,0-27.67Zm26.84-4.01c-.47,0-.93-.02-1.4,0-5.12.24-9.12,3.1-10.58,7.53-1.78,5.44-.46,11.3,3.57,14.28,4.36,3.23,9.25,3.31,14.21,1.52,2.43-.88,4.32-2.54,5.43-4.87,3.52-7.4.88-18.68-11.23-18.46Z"/>
      <path d="m1470.62,83.63c-5.66,0-11.32.04-16.98-.03-1.36-.02-1.73.42-1.5,1.71.51,2.86,1.86,5.14,4.33,6.71,4.21,2.67,10.84,2.1,14.55-1.22.75-.67,1.33-1.47,1.79-2.33.49-.92,1.07-.94,1.89-.46,3.04,1.79,6.09,3.56,9.17,5.29,1.07.6,1.13,1.13.3,2.01-3.02,3.22-6.61,5.53-10.85,6.72-9.31,2.6-18.42,2.38-26.95-2.63-6.57-3.86-9.58-9.99-10.18-17.39-.28-3.43,0-6.84,1.07-10.14,2.07-6.36,6.25-10.82,12.42-13.31,8.02-3.24,16.27-3.34,24.41-.74,8.49,2.71,13.3,8.84,14.86,17.55.38,2.14.57,4.31.62,6.49.03,1.37-.51,1.81-1.84,1.79-5.71-.05-11.42-.02-17.14-.02Zm-7.39-9.5c2.59,0,5.19,0,7.78,0,3.12,0,3.41-.5,1.96-3.3-.1-.18-.21-.36-.32-.53-2.52-3.85-6.35-4.87-10.57-4.57-4.23.3-7.75,1.92-9.27,6.33-.58,1.69-.35,2.05,1.4,2.06,3.01.01,6.02,0,9.03,0Z"/>
      <path d="m1303.7,83.65c-5.55,0-11.11,0-16.66,0-1.89,0-2.14.35-1.68,2.24,1.2,4.91,4.68,7.66,10.24,7.83,4.36.13,8.1-1.23,10.37-5.27.48-.85.99-.9,1.76-.45,3.14,1.83,6.27,3.66,9.44,5.44,1,.56.87,1.03.21,1.78-3.88,4.4-8.87,6.81-14.53,7.79-6.32,1.1-12.6.85-18.73-1.3-8.72-3.06-14.52-10.87-14.87-20.12-.27-7.2,1.46-13.68,6.89-18.78,3.47-3.26,7.68-5.05,12.3-5.94,6.76-1.3,13.44-1.1,19.91,1.38,8.46,3.24,12.73,9.73,13.92,18.48.22,1.64.29,3.3.36,4.95.06,1.48-.45,2-1.95,1.98-5.66-.07-11.31-.03-16.97-.03Zm-7.49-9.51c3.06,0,6.12.01,9.18,0,1.48,0,1.76-.4,1.28-1.8-.61-1.8-1.57-3.35-3.16-4.5-3.93-2.86-10.8-2.84-14.64.11-1.52,1.17-2.55,2.68-3.09,4.54-.34,1.19-.13,1.71,1.25,1.67,3.06-.07,6.12-.02,9.18-.02Z"/>
      <path d="m1339.95,63.67c1.55-1.37,3.08-2.66,4.79-3.73,7.16-4.49,17.94-4.39,24.68.27,3.41,2.36,5.24,5.7,5.75,9.74.26,2.05.42,4.12.41,6.2-.03,8.03-.04,16.07.02,24.1.01,1.5-.5,2.02-1.97,1.99-3.43-.06-6.85-.06-10.28,0-1.41.03-1.9-.51-1.9-1.92.03-7.31,0-14.62-.02-21.92,0-2.2-.37-4.33-1.24-6.36-.87-2.03-2.41-3.3-4.53-3.65-5.02-.84-9.78-.47-13.41,3.73-1.85,2.14-2.5,4.76-2.53,7.51-.06,6.74-.03,13.48-.04,20.21,0,2.32-.05,2.38-2.33,2.38-3.32,0-6.65-.03-9.97.01-1.29.02-1.85-.41-1.85-1.8.04-12.54.03-25.09,0-37.63,0-1.26.41-1.76,1.71-1.73,3.11.06,6.23.02,9.34.02q2.7,0,3.35,2.57Z"/>
      <path d="m1506.54,63.05c2.82-2.86,5.49-5.1,8.98-6.2,2.35-.74,4.69-.74,7.08-.39.9.13,1.03.7,1.03,1.44,0,3.06-.02,6.11,0,9.17,0,1-.39,1.38-1.39,1.36-1.71-.03-3.44-.12-5.13.1-6.06.77-10.02,5.26-10.41,11.51-.41,6.63-.13,13.26-.22,19.89-.03,2.2-.07,2.27-2.27,2.28-3.32.01-6.64-.03-9.96.01-1.24.02-1.74-.4-1.73-1.71.04-12.59.04-25.18,0-37.77,0-1.32.51-1.69,1.75-1.67,3.42.05,6.85.04,10.28,0,1.16-.01,2.1.09,1.99,1.97Z"/>
      <path d="m1266.22,74.37c0,8.6-.04,17.21.03,25.81.01,1.59-.55,2.09-2.07,2.06-3.32-.07-6.64-.05-9.97,0-1.35.02-1.93-.4-1.93-1.87.04-17.41.04-34.82,0-52.24,0-1.45.52-1.91,1.91-1.88,3.37.06,6.75.08,10.12,0,1.53-.04,1.94.57,1.93,2.02-.05,8.71-.03,17.41-.02,26.12Z"/>
      <path d="m1108.65,73.86c.37-6.54,4.31-12.18,11.28-15.87,7.98-4.22,19-2.94,25.67,3.03,9.86,8.82,8.85,22.93-2.16,30.31-10.03,6.72-24.3,4.38-31.23-5.15-2.35-3.24-3.58-6.86-3.56-12.32Z"/>
    </g>
    <path d="m1536.08,64.11c-2.25-.07-4.02-2.08-3.92-4.46.09-2.12,2.15-4.04,4.25-3.96,2.17.09,4.06,2.13,4.01,4.33-.05,2.27-2.04,4.15-4.33,4.09Zm3.12-4.03c.14-2.12-1.41-3.27-2.84-3.26-1.79,0-3.05,1.22-3.1,3.08-.05,1.75,1.29,3.18,2.99,3.2,1.78.02,2.93-1.15,2.94-3.01Z"/>
    <path d="m1534.59,58.41c.01-.27.08-.54.33-.71.46-.34,2.01-.23,2.57.19.52.39.66.9.3,1.76-.25.59.04,1.05.13,1.57.07.39.38.92-.19,1.1-.52.17-.7-.34-.84-.75-.04-.11-.06-.23-.1-.34-.11-.31-.26-.6-.63-.57-.43.04-.38.42-.42.72-.05.42-.02.98-.61.94-.55-.04-.53-.6-.56-1.01l.02-2.9Zm1.63.13c-.3.02-.45.21-.43.53.01.27.15.44.43.45.31,0,.54-.14.55-.46.01-.33-.21-.48-.54-.51Z"/>
  </g>
</svg>